<svg xmlns="http://www.w3.org/2000/svg" width="480" height="480" viewBox="0 0 480 480" version="1.1" shape-rendering="geometricPrecision">
  <path fill="#214F9C" fill-rule="evenodd" d="M 263.000 328.000 C 261.965 330.070 262.000 331.472 262.000 334.000 C 265.341 335.671 270.012 335.000 274.000 335.000 L 276.000 333.000 L 276.000 330.000 L 274.000 328.000 L 263.000 328.000 Z M 227.000 327.000 C 224.081 328.946 221.946 331.081 220.000 334.000 L 220.000 344.000 L 222.000 349.000 L 226.000 352.000 L 231.000 352.000 C 238.273 349.576 239.000 343.150 239.000 336.000 C 238.158 334.317 238.000 334.056 238.000 332.000 C 234.362 328.362 232.091 327.000 227.000 327.000 Z M 105.000 331.000 L 106.000 331.000 L 106.000 322.000 L 108.000 320.000 L 134.000 320.000 C 135.521 321.826 135.632 321.790 136.000 324.000 C 135.632 326.210 135.521 326.174 134.000 328.000 L 117.000 328.000 L 115.000 331.000 L 117.000 335.000 L 132.000 335.000 C 133.551 336.861 134.010 338.019 135.000 340.000 L 133.000 343.000 C 127.796 343.000 120.405 341.797 116.000 344.000 C 117.310 346.621 118.709 348.709 121.000 351.000 L 134.000 351.000 C 135.923 352.923 136.580 353.482 137.000 356.000 C 136.442 359.346 135.440 360.000 132.000 360.000 L 132.000 361.000 C 134.995 363.995 137.578 366.289 141.000 368.000 C 142.687 369.687 144.101 371.051 146.000 372.000 C 148.746 374.746 151.595 376.865 155.000 378.000 C 157.931 380.442 160.296 382.383 164.000 383.000 C 168.249 385.833 171.922 388.154 177.000 389.000 C 180.758 391.505 185.212 394.000 190.000 394.000 C 191.683 394.842 191.944 395.000 194.000 395.000 C 198.710 397.355 204.361 399.000 210.000 399.000 C 214.129 401.064 219.000 401.000 224.000 401.000 C 227.554 402.777 232.769 402.000 237.000 402.000 C 242.689 402.000 251.169 403.415 256.000 401.000 C 260.662 401.000 265.151 400.924 269.000 399.000 C 273.898 399.000 277.966 398.017 282.000 396.000 C 284.933 396.000 287.566 395.217 290.000 394.000 C 293.070 393.488 295.431 392.713 298.000 391.000 C 300.819 390.530 302.661 389.560 305.000 388.000 C 308.357 387.441 310.323 386.231 313.000 384.000 C 317.332 383.278 320.565 380.862 324.000 378.000 C 327.043 376.986 329.412 375.156 332.000 373.000 C 336.775 370.613 340.908 367.092 345.000 363.000 C 349.098 360.951 354.951 355.098 357.000 351.000 L 347.000 351.000 C 345.961 353.078 345.398 354.612 345.000 357.000 C 341.942 360.058 339.800 360.900 336.000 359.000 C 334.496 355.991 335.177 354.735 337.000 352.000 C 337.373 349.764 337.763 348.855 339.000 347.000 C 339.582 343.507 341.049 339.927 343.000 337.000 C 343.512 333.930 344.287 331.569 346.000 329.000 C 346.562 325.629 347.761 322.687 350.000 320.000 L 357.000 320.000 C 362.771 325.771 362.736 333.604 367.000 340.000 L 368.000 340.000 L 376.000 328.000 L 376.000 322.000 L 378.000 320.000 C 380.056 320.000 380.317 319.842 382.000 319.000 C 383.406 314.783 385.496 310.757 388.000 307.000 C 388.470 304.181 389.440 302.339 391.000 300.000 C 391.373 297.764 391.763 296.855 393.000 295.000 C 393.398 292.612 393.961 291.078 395.000 289.000 C 395.000 285.305 396.466 282.068 398.000 279.000 C 398.000 275.517 398.548 271.905 400.000 269.000 C 400.000 266.472 399.965 265.070 401.000 263.000 L 402.000 241.000 C 402.000 235.554 403.309 227.618 401.000 223.000 C 401.000 218.338 400.924 213.849 399.000 210.000 C 399.000 205.397 397.920 200.840 396.000 197.000 C 396.000 193.305 394.534 190.068 393.000 187.000 C 393.000 183.110 391.017 180.025 389.000 177.000 C 388.327 172.960 386.691 169.229 384.000 166.000 C 383.278 161.668 380.862 158.435 378.000 155.000 C 376.955 151.866 375.350 149.880 373.000 148.000 C 371.780 144.339 368.919 140.919 366.000 138.000 C 364.874 135.748 362.968 133.968 361.000 132.000 C 358.826 127.653 352.347 121.174 348.000 119.000 C 346.032 117.032 344.252 115.126 342.000 114.000 C 339.162 111.162 336.312 108.656 333.000 107.000 C 330.923 104.923 329.517 103.839 327.000 103.000 C 322.750 99.458 318.023 96.674 313.000 95.000 C 309.434 92.029 305.453 90.742 301.000 90.000 C 297.477 87.064 292.423 85.737 288.000 85.000 C 285.648 83.824 283.891 83.000 281.000 83.000 C 278.286 81.643 276.344 81.000 273.000 81.000 C 270.930 79.965 269.528 80.000 267.000 80.000 C 264.930 78.965 263.528 79.000 261.000 79.000 C 257.659 77.329 252.988 78.000 249.000 78.000 C 245.059 76.029 234.941 76.029 231.000 78.000 C 227.012 78.000 222.341 77.329 219.000 79.000 C 216.230 79.000 214.278 78.861 212.000 80.000 C 209.472 80.000 208.070 79.965 206.000 81.000 C 203.067 81.000 200.434 81.783 198.000 83.000 C 194.506 83.000 191.732 84.179 189.000 86.000 C 186.259 86.000 185.124 86.584 183.000 88.000 C 179.110 88.000 176.025 89.983 173.000 92.000 C 168.112 92.815 162.877 95.769 159.000 99.000 C 155.957 100.014 153.588 101.844 151.000 104.000 C 148.483 104.839 147.077 105.923 145.000 108.000 C 137.197 111.901 130.621 119.379 124.000 126.000 C 120.903 129.097 116.835 132.331 115.000 136.000 C 111.296 139.704 108.170 143.661 106.000 148.000 C 103.218 151.338 100.322 155.033 99.000 159.000 C 96.635 161.838 95.109 164.672 94.000 168.000 C 91.658 171.512 89.698 175.814 89.000 180.000 C 87.287 182.569 86.512 184.930 86.000 188.000 C 84.466 191.068 83.000 194.305 83.000 198.000 C 81.600 200.800 81.000 203.594 81.000 207.000 C 80.066 208.867 80.000 209.712 80.000 212.000 C 78.965 214.070 79.000 215.472 79.000 218.000 C 77.223 221.554 78.000 226.769 78.000 231.000 C 76.029 234.941 76.029 245.059 78.000 249.000 C 78.000 252.988 77.329 257.659 79.000 261.000 C 79.000 263.528 78.965 264.930 80.000 267.000 C 80.000 269.528 79.965 270.930 81.000 273.000 C 81.000 276.344 81.643 278.286 83.000 281.000 C 83.000 283.891 83.824 285.648 85.000 288.000 C 85.737 292.423 87.064 297.477 90.000 301.000 C 90.618 304.708 91.527 308.032 94.000 311.000 C 95.109 314.328 96.635 317.162 99.000 320.000 C 101.056 320.000 101.317 320.158 103.000 321.000 L 102.000 326.000 L 105.000 331.000 Z M 199.000 370.000 C 203.275 367.863 207.000 369.833 207.000 375.000 C 205.561 377.158 205.674 377.041 206.000 379.000 L 204.000 381.000 L 202.000 383.000 C 199.534 382.178 198.155 381.796 196.000 380.000 L 196.000 373.000 L 199.000 370.000 Z M 296.000 370.000 L 295.000 371.000 C 292.414 369.276 293.844 369.526 291.000 370.000 L 291.000 371.000 C 293.518 371.420 294.077 372.077 296.000 374.000 L 296.000 378.000 L 292.000 382.000 L 288.000 382.000 L 285.000 379.000 C 285.000 375.558 285.489 373.069 286.000 370.000 L 290.000 366.000 L 294.000 366.000 L 297.000 369.000 L 296.000 370.000 Z M 265.000 367.000 L 266.000 366.000 L 270.000 366.000 C 272.075 368.490 273.000 369.659 273.000 373.000 C 272.158 374.683 272.000 374.944 272.000 377.000 L 269.000 381.000 C 265.400 382.800 263.913 381.913 261.000 379.000 L 261.000 372.000 L 265.000 367.000 Z M 254.000 379.000 C 256.056 379.000 256.317 379.158 258.000 380.000 L 257.000 382.000 C 253.986 382.000 251.490 382.245 249.000 381.000 L 249.000 379.000 C 252.074 375.926 256.293 374.239 257.000 370.000 L 256.000 369.000 L 252.000 372.000 L 251.000 371.000 L 250.000 370.000 C 251.951 366.098 253.738 366.000 258.000 366.000 C 260.226 368.226 261.000 368.881 261.000 372.000 C 258.572 374.428 255.402 376.663 254.000 379.000 Z M 229.000 366.000 L 231.000 367.000 L 230.000 374.000 L 231.000 374.000 C 231.949 372.101 233.313 370.687 235.000 369.000 L 239.000 369.000 L 242.000 372.000 C 242.000 374.741 241.416 375.876 240.000 378.000 L 241.000 379.000 L 236.000 383.000 C 232.615 381.872 231.128 380.385 230.000 377.000 C 229.014 377.986 229.000 377.833 229.000 380.000 L 227.000 382.000 L 222.000 383.000 L 219.000 379.000 C 217.101 379.949 215.687 381.313 214.000 383.000 C 210.788 382.465 209.453 381.453 207.000 379.000 L 209.000 377.000 L 213.000 379.000 C 212.051 377.101 210.687 375.687 209.000 374.000 C 209.300 372.201 209.181 372.638 210.000 371.000 L 212.000 369.000 L 216.000 369.000 L 218.000 371.000 L 218.000 372.000 C 215.673 373.163 216.327 373.163 214.000 372.000 C 215.043 374.086 215.914 374.957 218.000 376.000 C 219.371 373.258 220.537 371.463 223.000 369.000 L 228.000 369.000 C 228.300 367.201 228.181 367.638 229.000 366.000 Z M 193.000 367.000 L 195.000 366.000 C 196.305 368.609 196.305 370.391 195.000 373.000 C 195.000 376.868 194.407 379.112 192.000 382.000 L 189.000 382.000 L 186.000 382.000 L 184.000 380.000 L 184.000 373.000 L 188.000 369.000 C 190.288 369.000 191.133 368.934 193.000 368.000 L 193.000 367.000 Z M 278.000 379.000 C 280.056 379.000 280.317 379.158 282.000 380.000 L 281.000 382.000 C 278.519 382.000 277.102 382.299 275.000 383.000 L 273.000 381.000 C 273.725 376.651 277.845 374.629 281.000 372.000 L 281.000 370.000 L 280.000 369.000 L 276.000 372.000 L 275.000 371.000 L 274.000 369.000 C 276.077 366.923 277.483 365.839 280.000 365.000 C 283.064 367.043 284.376 368.257 285.000 372.000 C 282.455 374.545 279.418 376.164 278.000 379.000 Z M 278.000 342.000 L 284.000 350.000 L 288.000 358.000 L 286.000 360.000 L 279.000 360.000 C 275.606 356.606 272.422 352.265 271.000 348.000 L 267.000 344.000 L 263.000 344.000 C 261.116 347.767 262.000 353.526 262.000 358.000 C 259.417 360.153 258.374 360.000 255.000 360.000 L 253.000 358.000 L 253.000 332.000 L 253.000 322.000 L 255.000 320.000 C 263.408 320.000 272.204 319.701 280.000 321.000 L 285.000 326.000 C 285.000 328.056 285.158 328.317 286.000 330.000 C 286.000 335.575 283.268 340.244 278.000 342.000 Z M 223.000 320.000 C 226.128 318.436 230.255 319.000 234.000 319.000 L 241.000 322.000 L 245.000 326.000 L 248.000 332.000 C 248.000 335.124 248.533 337.200 249.000 340.000 C 247.861 342.278 248.000 344.230 248.000 347.000 C 247.181 348.638 247.300 348.201 247.000 350.000 L 240.000 358.000 L 236.000 360.000 L 224.000 360.000 L 219.000 358.000 L 212.000 351.000 C 211.602 348.612 211.039 347.078 210.000 345.000 L 210.000 335.000 C 210.842 333.317 211.000 333.056 211.000 331.000 C 214.073 326.390 216.913 321.015 223.000 320.000 Z M 240.000 125.000 C 242.413 126.448 243.000 127.775 243.000 131.000 C 244.521 132.826 244.632 132.790 245.000 135.000 C 247.122 137.547 248.000 139.594 248.000 143.000 C 250.765 147.147 251.272 151.908 254.000 156.000 C 254.000 158.707 254.275 158.930 256.000 161.000 C 256.000 165.175 257.820 168.730 260.000 172.000 C 260.000 175.494 261.179 178.268 263.000 181.000 C 263.373 183.236 263.763 184.145 265.000 186.000 C 265.500 189.000 265.988 190.586 268.000 193.000 C 268.535 196.212 269.547 197.547 272.000 200.000 L 293.000 200.000 C 296.745 200.000 300.872 199.436 304.000 201.000 C 309.446 201.000 317.382 199.691 322.000 202.000 L 336.000 202.000 C 339.014 202.000 341.510 201.755 344.000 203.000 C 346.528 203.000 347.930 202.965 350.000 204.000 C 348.957 206.086 348.086 206.957 346.000 208.000 C 343.162 210.838 340.312 213.344 337.000 215.000 C 333.388 218.612 330.159 221.921 326.000 224.000 C 323.734 227.400 320.884 229.705 317.000 231.000 C 315.313 232.687 313.899 234.051 312.000 235.000 C 304.402 242.598 295.972 248.357 288.000 255.000 C 288.000 258.494 289.179 261.268 291.000 264.000 C 291.000 266.056 291.158 266.317 292.000 268.000 C 292.000 272.125 292.844 275.766 295.000 279.000 C 295.000 281.056 295.158 281.317 296.000 283.000 L 295.000 284.000 C 297.236 288.473 297.191 293.786 300.000 298.000 C 300.000 300.891 300.824 302.648 302.000 305.000 C 302.000 308.159 302.358 309.537 304.000 312.000 C 304.000 315.344 304.643 317.286 306.000 320.000 L 313.000 320.000 L 315.000 322.000 C 316.138 325.414 315.000 327.169 315.000 331.000 L 315.000 350.000 C 319.405 352.203 326.796 351.000 332.000 351.000 L 334.000 353.000 L 334.000 358.000 L 332.000 360.000 L 308.000 360.000 L 306.000 358.000 L 306.000 334.000 C 301.283 330.856 296.943 327.472 292.000 325.000 C 289.254 322.254 286.405 320.135 283.000 319.000 C 279.325 315.938 275.372 312.457 271.000 311.000 C 268.845 309.204 267.466 308.822 265.000 308.000 C 263.396 305.594 263.034 304.506 260.000 304.000 C 256.136 300.780 251.627 296.542 247.000 295.000 C 244.139 292.616 241.859 291.000 238.000 291.000 C 232.615 294.590 226.906 297.094 222.000 302.000 C 218.255 303.873 215.266 305.734 212.000 309.000 C 208.596 309.567 205.696 311.753 203.000 314.000 C 200.049 315.476 197.545 316.910 196.000 320.000 L 206.000 320.000 L 208.000 322.000 L 208.000 326.000 L 206.000 328.000 L 198.000 328.000 C 196.755 330.490 197.000 332.986 197.000 336.000 L 197.000 350.000 L 197.000 358.000 L 195.000 360.000 L 190.000 360.000 L 188.000 358.000 L 188.000 349.000 L 188.000 329.000 C 185.510 327.755 183.014 328.000 180.000 328.000 C 177.281 330.719 175.915 333.000 172.000 333.000 L 166.000 333.000 C 163.884 330.461 162.670 328.780 160.000 327.000 L 154.000 328.000 L 150.000 333.000 C 150.000 337.789 149.602 342.805 151.000 347.000 L 155.000 351.000 L 161.000 351.000 C 163.387 348.613 164.312 346.531 166.000 344.000 C 169.406 344.000 171.453 344.878 174.000 347.000 C 174.000 352.052 170.534 354.466 167.000 358.000 C 164.612 358.398 163.078 358.961 161.000 360.000 L 152.000 359.000 L 148.000 357.000 L 143.000 352.000 L 140.000 345.000 C 140.000 339.714 140.205 334.767 141.000 330.000 L 149.000 321.000 L 154.000 319.000 L 163.000 319.000 C 165.920 320.460 168.312 321.760 171.000 324.000 L 172.000 323.000 C 173.280 319.160 175.000 316.489 175.000 312.000 C 176.642 309.537 177.000 308.159 177.000 305.000 C 178.176 302.648 179.000 300.891 179.000 298.000 C 181.231 293.537 181.763 288.473 184.000 284.000 L 183.000 283.000 C 183.842 281.317 184.000 281.056 184.000 279.000 C 186.156 275.766 187.000 272.125 187.000 268.000 C 187.842 266.317 188.000 266.056 188.000 264.000 C 189.821 261.268 191.000 258.494 191.000 255.000 C 183.028 248.357 174.598 242.598 167.000 235.000 L 163.000 232.000 C 159.018 230.009 155.500 227.750 153.000 224.000 C 147.723 221.361 142.415 216.415 138.000 212.000 C 134.747 210.374 130.610 207.220 129.000 204.000 C 131.070 202.965 132.472 203.000 135.000 203.000 C 137.702 201.649 140.743 202.000 144.000 202.000 L 158.000 202.000 C 162.405 199.797 169.796 201.000 175.000 201.000 C 178.128 199.436 182.255 200.000 186.000 200.000 L 207.000 200.000 L 211.000 196.000 L 212.000 192.000 C 213.416 189.876 214.000 188.741 214.000 186.000 C 215.237 184.145 215.627 183.236 216.000 181.000 C 217.713 178.431 218.488 176.070 219.000 173.000 L 223.000 165.000 C 223.512 161.930 224.287 159.569 226.000 157.000 C 226.000 153.110 227.983 150.025 230.000 147.000 C 230.000 144.293 230.275 144.070 232.000 142.000 C 232.000 137.501 233.681 134.478 236.000 131.000 C 236.523 127.860 237.152 126.424 240.000 125.000 Z"/>
  <path fill="#E8EEF5" fill-rule="evenodd" d="M 386.000 343.000 C 384.755 345.490 385.000 347.986 385.000 351.000 C 391.073 354.036 399.000 351.417 399.000 344.000 C 395.446 342.223 390.231 343.000 386.000 343.000 Z M 386.000 328.000 C 384.965 330.070 385.000 331.472 385.000 334.000 C 388.341 335.671 393.012 335.000 397.000 335.000 L 399.000 333.000 L 399.000 330.000 L 397.000 328.000 L 386.000 328.000 Z M 68.000 325.000 L 69.000 326.000 L 68.000 322.000 C 70.583 319.847 71.626 320.000 75.000 320.000 C 77.659 322.659 79.000 324.246 79.000 328.000 C 80.176 330.352 81.000 332.109 81.000 335.000 C 82.759 338.517 84.336 342.018 85.000 346.000 L 86.000 346.000 L 87.000 341.000 L 89.000 339.000 C 89.000 335.506 90.179 332.732 92.000 330.000 C 92.605 326.370 92.954 322.827 96.000 321.000 L 98.000 321.000 C 100.133 323.560 100.472 325.830 101.000 329.000 C 100.158 330.683 100.000 330.944 100.000 333.000 C 98.763 334.855 98.373 335.764 98.000 338.000 C 95.867 340.560 95.528 342.830 95.000 346.000 C 93.565 348.869 92.000 351.512 92.000 355.000 L 90.000 359.000 L 104.000 376.000 C 106.606 377.303 108.750 379.750 111.000 382.000 C 113.606 383.303 115.750 385.750 118.000 388.000 C 120.252 389.126 122.032 391.032 124.000 393.000 L 132.000 399.000 C 135.986 400.993 139.542 402.542 143.000 406.000 C 146.017 407.006 148.282 408.188 151.000 410.000 L 161.000 415.000 C 163.819 415.470 165.661 416.440 168.000 418.000 C 171.271 418.000 173.339 419.669 176.000 421.000 C 178.741 421.000 179.876 421.584 182.000 423.000 C 185.633 423.000 189.131 424.087 192.000 426.000 C 195.406 426.000 198.200 426.600 201.000 428.000 C 203.288 428.000 204.133 428.066 206.000 429.000 C 208.770 429.000 210.722 428.861 213.000 430.000 C 215.770 430.000 217.722 429.861 220.000 431.000 L 263.000 431.000 C 266.133 429.434 269.178 429.000 273.000 429.000 C 274.867 428.066 275.712 428.000 278.000 428.000 C 280.800 426.600 283.594 426.000 287.000 426.000 C 288.683 425.158 288.944 425.000 291.000 425.000 C 293.463 423.358 294.841 423.000 298.000 423.000 C 300.560 420.867 302.830 420.528 306.000 420.000 C 308.569 418.287 310.930 417.512 314.000 417.000 C 316.687 414.761 319.629 413.562 323.000 413.000 C 325.366 411.028 327.002 409.500 330.000 409.000 C 332.070 407.275 332.293 407.000 335.000 407.000 C 337.839 404.161 340.234 401.628 344.000 401.000 L 356.000 393.000 L 362.000 388.000 C 363.665 384.671 368.579 380.711 372.000 379.000 L 389.000 360.000 C 385.765 358.383 382.256 358.915 379.000 360.000 L 376.000 357.000 L 377.000 355.000 C 376.373 351.237 375.156 347.689 377.000 344.000 L 376.000 343.000 L 377.000 342.000 C 375.695 339.391 375.695 337.609 377.000 335.000 C 376.448 331.687 375.675 331.790 378.000 329.000 C 378.000 324.211 379.249 322.501 383.000 320.000 L 394.000 320.000 C 397.220 320.000 400.147 321.049 403.000 322.000 L 407.000 326.000 L 407.000 332.000 L 408.000 332.000 C 409.308 329.383 409.969 327.437 412.000 325.000 C 412.822 322.534 413.204 321.155 415.000 319.000 C 415.582 315.507 417.049 311.927 419.000 309.000 C 419.000 306.259 419.584 305.124 421.000 303.000 C 421.000 300.293 421.275 300.070 423.000 298.000 C 423.000 294.841 423.358 293.463 425.000 291.000 C 425.000 288.944 425.158 288.683 426.000 287.000 C 426.000 283.594 426.600 280.800 428.000 278.000 C 428.000 275.712 428.066 274.867 429.000 273.000 C 429.000 270.472 428.965 269.070 430.000 267.000 L 431.000 240.000 C 431.000 234.796 432.203 227.405 430.000 223.000 C 430.000 219.255 430.564 215.128 429.000 212.000 C 429.000 209.472 429.035 208.070 428.000 206.000 C 428.000 203.712 427.934 202.867 427.000 201.000 C 427.000 197.481 426.837 195.756 425.000 193.000 C 425.000 189.841 424.642 188.463 423.000 186.000 C 423.000 182.626 423.153 181.583 421.000 179.000 C 420.627 176.764 420.237 175.855 419.000 174.000 C 419.000 169.825 417.180 166.270 415.000 163.000 C 414.438 159.629 413.239 156.687 411.000 154.000 C 410.086 151.259 408.966 149.359 407.000 147.000 C 406.500 144.002 404.972 142.366 403.000 140.000 C 402.101 138.203 401.350 137.102 401.000 135.000 C 398.923 132.923 397.839 131.517 397.000 129.000 C 393.773 125.773 389.938 121.876 388.000 118.000 C 383.279 113.279 378.541 108.312 375.000 103.000 C 372.394 101.697 370.250 99.250 368.000 97.000 C 365.394 95.697 363.250 93.250 361.000 91.000 C 358.748 89.874 356.968 87.968 355.000 86.000 L 345.000 79.000 C 341.957 77.986 339.588 76.156 337.000 74.000 C 333.788 73.465 332.453 72.453 330.000 70.000 C 327.790 69.632 327.826 69.521 326.000 68.000 C 323.790 67.632 323.826 67.521 322.000 66.000 C 319.790 65.632 319.826 65.521 318.000 64.000 C 314.647 64.000 312.593 62.729 310.000 61.000 C 306.018 60.336 302.517 58.759 299.000 57.000 C 296.482 56.580 294.224 56.112 292.000 55.000 C 289.067 55.000 286.434 54.217 284.000 53.000 C 280.656 53.000 278.714 52.357 276.000 51.000 C 273.712 51.000 272.867 50.934 271.000 50.000 C 267.986 50.000 265.490 50.245 263.000 49.000 C 259.986 49.000 257.490 49.245 255.000 48.000 L 224.000 48.000 C 221.510 49.245 219.014 49.000 216.000 49.000 C 213.510 50.245 211.014 50.000 208.000 50.000 C 206.133 50.934 205.288 51.000 203.000 51.000 C 200.286 52.357 198.344 53.000 195.000 53.000 C 192.648 54.176 190.891 55.000 188.000 55.000 C 185.566 56.217 182.933 57.000 180.000 57.000 C 177.390 58.305 174.968 59.505 172.000 60.000 C 168.850 62.100 165.767 63.372 162.000 64.000 C 160.145 65.237 159.236 65.627 157.000 66.000 C 154.641 67.966 152.741 69.086 150.000 70.000 C 147.323 72.231 145.357 73.441 142.000 74.000 C 139.167 76.361 136.360 78.880 133.000 80.000 L 126.000 85.000 C 122.296 88.704 118.339 91.830 114.000 94.000 C 110.445 97.555 106.606 101.092 104.000 105.000 C 101.153 106.424 98.424 109.153 97.000 112.000 C 93.691 115.309 90.897 118.206 89.000 122.000 C 84.626 126.374 80.800 130.599 79.000 136.000 C 75.348 139.652 73.498 143.506 72.000 148.000 C 70.112 150.266 69.470 151.177 69.000 154.000 C 65.415 157.585 63.788 162.269 63.000 167.000 C 60.988 169.414 60.500 171.000 60.000 174.000 C 58.584 176.124 58.000 177.259 58.000 180.000 C 56.824 182.352 56.000 184.109 56.000 187.000 C 54.643 189.714 54.000 191.656 54.000 195.000 C 52.163 197.756 52.000 199.481 52.000 203.000 C 50.223 206.554 50.000 210.698 50.000 215.000 C 48.755 217.490 49.000 219.986 49.000 223.000 C 47.649 225.702 48.000 228.743 48.000 232.000 L 48.000 247.000 C 48.000 250.257 47.649 253.298 49.000 256.000 C 49.000 259.014 48.755 261.510 50.000 264.000 C 50.000 268.302 50.223 272.446 52.000 276.000 C 52.000 279.519 52.163 281.244 54.000 284.000 C 54.000 288.727 55.068 292.135 57.000 296.000 C 57.000 299.494 58.179 302.268 60.000 305.000 C 60.628 308.767 61.900 311.850 64.000 315.000 C 64.582 318.493 66.049 322.073 68.000 325.000 Z M 373.000 357.000 L 371.000 359.000 L 366.000 359.000 C 362.812 355.812 362.314 352.471 360.000 349.000 C 358.201 348.700 358.638 348.819 357.000 348.000 C 353.812 349.063 352.188 349.063 349.000 348.000 L 348.000 349.000 L 346.000 348.000 L 346.000 349.000 L 345.000 352.000 L 347.000 349.000 L 358.000 349.000 L 360.000 351.000 L 345.000 366.000 L 329.000 378.000 L 309.000 389.000 C 306.181 389.470 304.339 390.440 302.000 392.000 C 299.764 392.373 298.855 392.763 297.000 394.000 C 291.804 394.866 286.622 396.689 282.000 399.000 C 278.594 399.000 275.800 399.600 273.000 401.000 C 270.712 401.000 269.867 401.066 268.000 402.000 C 264.986 402.000 262.490 401.755 260.000 403.000 C 256.255 403.000 252.128 402.436 249.000 404.000 L 228.000 404.000 C 225.298 402.649 222.257 403.000 219.000 403.000 C 216.722 401.861 214.770 402.000 212.000 402.000 C 208.867 400.434 205.822 400.000 202.000 400.000 C 200.317 399.158 200.056 399.000 198.000 399.000 C 195.117 397.559 192.265 396.544 189.000 396.000 C 186.648 394.824 184.891 394.000 182.000 394.000 C 179.179 392.119 176.390 390.565 173.000 390.000 C 170.661 388.440 168.819 387.470 166.000 387.000 C 163.641 385.034 161.741 383.914 159.000 383.000 C 156.641 381.034 154.741 379.914 152.000 379.000 C 149.923 376.923 148.517 375.839 146.000 375.000 L 142.000 372.000 L 128.000 360.000 C 128.828 358.620 128.620 358.828 130.000 358.000 C 123.691 360.103 115.046 359.000 108.000 359.000 C 105.685 356.222 105.951 356.148 107.000 353.000 C 104.797 348.595 106.000 341.204 106.000 336.000 C 107.521 334.174 107.632 334.210 108.000 332.000 L 107.000 334.000 C 104.186 332.593 103.038 330.446 101.000 328.000 C 101.000 325.519 101.299 324.102 102.000 322.000 C 100.317 321.158 100.056 321.000 98.000 321.000 L 95.000 318.000 C 93.607 313.821 90.744 310.462 90.000 306.000 C 88.440 303.661 87.470 301.819 87.000 299.000 C 85.763 297.145 85.373 296.236 85.000 294.000 C 83.466 290.932 82.000 287.695 82.000 284.000 C 80.643 281.286 80.000 279.344 80.000 276.000 C 78.434 272.867 78.000 269.822 78.000 266.000 C 76.861 263.722 77.000 261.770 77.000 259.000 C 75.436 255.872 76.000 251.745 76.000 248.000 C 74.090 244.180 74.090 234.820 76.000 231.000 C 76.000 227.255 75.436 223.128 77.000 220.000 C 77.000 217.472 76.965 216.070 78.000 214.000 C 78.000 210.178 78.434 207.133 80.000 204.000 C 80.000 200.594 80.600 197.800 82.000 195.000 C 82.000 192.259 82.584 191.124 84.000 189.000 C 84.000 186.259 84.584 185.124 86.000 183.000 C 86.373 180.764 86.763 179.855 88.000 178.000 C 88.779 173.324 91.383 168.925 94.000 165.000 C 94.426 162.444 95.603 161.096 97.000 159.000 C 98.302 155.093 100.878 151.122 104.000 148.000 C 105.310 145.379 106.709 143.291 109.000 141.000 C 111.243 136.514 115.157 132.843 119.000 129.000 C 120.658 125.685 124.185 122.815 127.000 120.000 C 130.315 118.342 133.185 114.815 136.000 112.000 L 156.000 98.000 C 158.741 97.086 160.641 95.966 163.000 94.000 C 165.823 93.530 166.734 92.888 169.000 91.000 C 171.819 90.530 173.661 89.560 176.000 88.000 C 178.819 87.530 180.661 86.560 183.000 85.000 C 185.388 84.602 186.922 84.039 189.000 83.000 C 191.891 83.000 193.648 82.176 196.000 81.000 C 198.933 81.000 201.566 80.217 204.000 79.000 C 206.288 79.000 207.133 78.934 209.000 78.000 C 211.528 78.000 212.930 78.035 215.000 77.000 C 217.528 77.000 218.930 77.035 221.000 76.000 C 224.988 76.000 229.659 76.671 233.000 75.000 L 258.000 76.000 C 260.278 77.139 262.230 77.000 265.000 77.000 C 267.070 78.035 268.472 78.000 271.000 78.000 C 273.800 79.400 276.594 80.000 280.000 80.000 C 284.029 82.015 288.458 83.243 293.000 84.000 C 295.569 85.713 297.930 86.488 301.000 87.000 C 303.339 88.560 305.181 89.530 308.000 90.000 L 318.000 95.000 C 320.983 97.486 324.456 99.819 328.000 101.000 L 334.000 105.000 L 342.000 111.000 C 343.687 112.687 345.101 114.051 347.000 115.000 L 363.000 131.000 C 364.126 133.252 366.032 135.032 368.000 137.000 C 369.569 140.139 372.374 143.374 375.000 146.000 C 376.014 149.043 377.844 151.412 380.000 154.000 C 381.245 157.736 383.353 160.824 386.000 164.000 C 387.075 167.225 388.071 170.107 390.000 173.000 C 390.565 176.390 392.119 179.179 394.000 182.000 C 394.000 184.891 394.824 186.648 396.000 189.000 C 396.544 192.265 397.559 195.117 399.000 198.000 C 399.000 200.056 399.158 200.317 400.000 202.000 C 400.000 204.288 400.066 205.133 401.000 207.000 C 401.000 209.288 401.066 210.133 402.000 212.000 C 402.000 214.770 401.861 216.722 403.000 219.000 C 403.000 222.257 402.649 225.298 404.000 228.000 L 404.000 252.000 C 402.649 254.702 403.000 257.743 403.000 261.000 C 401.965 263.070 402.000 264.472 402.000 267.000 C 401.066 268.867 401.000 269.712 401.000 272.000 C 400.066 273.867 400.000 274.712 400.000 277.000 C 398.783 279.434 398.000 282.067 398.000 285.000 C 394.102 292.796 392.940 301.590 388.000 309.000 C 387.228 313.634 384.490 317.510 381.000 321.000 C 379.201 321.300 379.638 321.181 378.000 322.000 L 378.000 328.000 C 374.615 333.078 371.541 338.459 367.000 343.000 C 367.716 345.148 368.441 346.129 370.000 348.000 C 370.000 350.707 370.275 350.930 372.000 353.000 C 372.000 355.056 372.158 355.317 373.000 357.000 Z"/>
  <path fill="#F2B408" fill-rule="evenodd" d="M 239.000 128.000 C 237.653 132.041 236.396 136.406 234.000 140.000 C 233.627 142.236 233.237 143.145 232.000 145.000 C 231.354 148.875 230.167 152.749 228.000 156.000 C 227.372 159.767 226.100 162.850 224.000 166.000 C 224.000 169.353 222.729 171.407 221.000 174.000 C 220.220 178.680 218.620 184.070 216.000 188.000 C 215.123 193.262 212.984 198.016 209.000 202.000 L 187.000 202.000 C 183.255 202.000 179.128 201.436 176.000 203.000 C 170.796 203.000 163.405 201.797 159.000 204.000 C 151.106 204.000 141.104 202.632 134.000 205.000 C 135.172 207.343 136.657 208.828 139.000 210.000 C 141.995 212.995 144.578 215.289 148.000 217.000 C 157.789 226.789 169.144 233.144 179.000 243.000 C 180.899 243.949 182.313 245.313 184.000 247.000 C 187.139 248.569 190.374 251.374 193.000 254.000 L 192.000 263.000 C 190.824 265.352 190.000 267.109 190.000 270.000 C 188.783 272.434 188.000 275.067 188.000 278.000 C 186.358 280.463 186.000 281.841 186.000 285.000 C 184.358 287.463 184.000 288.841 184.000 292.000 C 182.824 294.352 182.000 296.109 182.000 299.000 C 180.824 301.352 180.000 303.109 180.000 306.000 C 178.824 308.352 178.000 310.109 178.000 313.000 C 176.643 315.714 176.000 317.656 176.000 321.000 L 173.000 327.000 L 174.000 330.000 L 178.000 327.000 C 176.464 323.928 176.731 322.723 179.000 320.000 L 192.000 320.000 C 193.917 316.166 198.334 313.833 202.000 312.000 C 204.588 309.844 206.957 308.014 210.000 307.000 C 212.156 304.844 213.132 303.478 216.000 303.000 C 218.077 300.923 219.483 299.839 222.000 299.000 L 231.000 293.000 C 234.143 290.381 236.731 288.000 241.000 288.000 L 254.000 296.000 C 256.077 298.077 257.483 299.161 260.000 300.000 C 261.923 301.923 262.482 302.580 265.000 303.000 C 268.266 306.266 271.255 308.127 275.000 310.000 C 279.366 313.638 284.121 316.560 289.000 319.000 C 293.623 323.623 299.096 325.914 304.000 330.000 L 306.000 329.000 L 306.000 324.000 C 304.375 323.025 304.160 322.739 303.000 321.000 C 303.000 317.656 302.357 315.714 301.000 313.000 C 301.000 310.109 300.176 308.352 299.000 306.000 C 299.000 303.109 298.176 301.352 297.000 299.000 C 297.000 296.109 296.176 294.352 295.000 292.000 C 295.000 288.841 294.642 287.463 293.000 285.000 C 293.000 281.841 292.642 280.463 291.000 278.000 C 291.000 275.067 290.217 272.434 289.000 270.000 C 289.000 267.109 288.176 265.352 287.000 263.000 L 286.000 254.000 C 288.626 251.374 291.861 248.569 295.000 247.000 C 296.687 245.313 298.101 243.949 300.000 243.000 C 309.856 233.144 321.211 226.789 331.000 217.000 C 334.422 215.289 337.005 212.995 340.000 210.000 C 342.343 208.828 343.828 207.343 345.000 205.000 C 337.896 202.632 327.894 204.000 320.000 204.000 C 315.382 201.691 307.446 203.000 302.000 203.000 C 292.039 201.340 280.618 202.000 270.000 202.000 C 266.999 198.999 265.000 196.248 265.000 192.000 C 263.763 190.145 263.373 189.236 263.000 187.000 C 260.064 183.477 258.737 178.423 258.000 174.000 L 252.000 160.000 C 251.228 155.367 249.591 150.886 247.000 147.000 C 247.000 144.259 246.416 143.124 245.000 141.000 L 241.000 128.000 L 239.000 128.000 Z"/>
  <path fill="#5E6B76" fill-rule="evenodd" d="M 193.000 320.000 L 195.000 320.000 C 195.949 318.101 197.313 316.687 199.000 315.000 L 205.000 311.000 C 207.148 310.284 208.129 309.559 210.000 308.000 C 212.868 307.522 213.844 306.156 216.000 304.000 C 220.614 302.462 225.344 298.656 229.000 295.000 L 238.000 290.000 C 241.859 290.000 244.139 291.616 247.000 294.000 C 251.627 295.542 256.136 299.780 260.000 303.000 C 262.907 303.485 263.728 304.456 265.000 307.000 C 267.466 307.822 268.845 308.204 271.000 310.000 C 275.372 311.457 279.325 314.938 283.000 318.000 C 286.405 319.135 289.254 321.254 292.000 324.000 C 296.943 326.472 301.283 329.856 306.000 333.000 C 304.792 330.987 303.283 330.141 301.000 329.000 L 292.000 323.000 C 289.254 320.254 286.405 318.135 283.000 317.000 C 278.911 313.593 273.890 309.630 269.000 308.000 C 266.844 305.844 265.868 304.478 263.000 304.000 C 260.923 301.923 259.517 300.839 257.000 300.000 C 252.192 295.192 246.377 292.584 241.000 289.000 C 235.966 289.000 231.715 292.904 228.000 296.000 C 223.868 298.066 219.475 300.525 216.000 304.000 C 213.132 304.478 212.156 305.844 210.000 308.000 C 206.957 309.014 204.588 310.844 202.000 313.000 C 198.732 314.634 194.652 316.697 193.000 320.000 Z M 306.000 323.000 L 307.000 321.000 C 303.444 319.222 303.000 316.053 303.000 312.000 L 301.000 309.000 C 301.000 305.656 300.357 303.714 299.000 301.000 C 299.000 298.259 298.416 297.124 297.000 295.000 C 297.000 291.103 295.631 287.262 294.000 284.000 L 295.000 283.000 C 294.158 281.317 294.000 281.056 294.000 279.000 C 291.844 275.766 291.000 272.125 291.000 268.000 C 290.158 266.317 290.000 266.056 290.000 264.000 C 288.179 261.268 287.000 258.494 287.000 255.000 C 290.718 251.282 295.518 247.241 300.000 245.000 L 317.000 230.000 C 321.124 228.625 323.244 226.307 326.000 223.000 C 329.422 221.289 332.005 218.995 335.000 216.000 C 330.041 218.480 325.171 222.829 321.000 227.000 C 315.622 229.689 310.518 234.482 306.000 239.000 C 303.748 240.126 301.968 242.032 300.000 244.000 C 298.101 244.949 296.687 246.313 295.000 248.000 L 287.000 254.000 C 287.000 258.603 288.080 263.160 290.000 267.000 C 290.000 269.933 290.783 272.566 292.000 275.000 C 292.000 277.741 292.584 278.876 294.000 281.000 C 294.000 284.159 294.358 285.537 296.000 288.000 C 296.000 291.344 296.643 293.286 298.000 296.000 C 298.000 298.891 298.824 300.648 300.000 303.000 C 300.000 305.891 300.824 307.648 302.000 310.000 C 302.000 312.891 302.824 314.648 304.000 317.000 C 304.000 319.481 304.299 320.898 305.000 323.000 L 306.000 323.000 Z M 130.000 204.000 C 131.377 206.754 135.114 209.557 138.000 211.000 C 142.415 215.415 147.723 220.361 153.000 223.000 C 156.028 226.634 158.776 228.888 163.000 231.000 L 167.000 234.000 L 179.000 245.000 C 183.482 247.241 188.282 251.282 192.000 255.000 C 192.000 258.494 190.821 261.268 189.000 264.000 C 189.000 266.056 188.842 266.317 188.000 268.000 C 188.000 272.125 187.156 275.766 185.000 279.000 C 185.000 281.056 184.842 281.317 184.000 283.000 L 185.000 284.000 C 183.466 287.068 182.000 290.305 182.000 294.000 C 180.824 296.352 180.000 298.109 180.000 301.000 C 178.643 303.714 178.000 305.656 178.000 309.000 C 176.000 312.000 175.592 315.451 175.000 319.000 L 171.000 325.000 L 172.000 326.000 L 173.000 326.000 C 174.026 322.922 175.000 320.588 175.000 317.000 C 176.176 314.648 177.000 312.891 177.000 310.000 C 178.176 307.648 179.000 305.891 179.000 303.000 C 180.176 300.648 181.000 298.891 181.000 296.000 C 182.357 293.286 183.000 291.344 183.000 288.000 C 184.642 285.537 185.000 284.159 185.000 281.000 C 186.416 278.876 187.000 277.741 187.000 275.000 C 188.217 272.566 189.000 269.933 189.000 267.000 C 190.920 263.160 192.000 258.603 192.000 254.000 L 163.000 230.000 C 157.622 227.311 152.518 222.518 148.000 218.000 C 142.610 215.305 137.551 210.551 133.000 206.000 L 134.000 204.000 C 139.779 202.074 147.518 203.000 154.000 203.000 C 156.528 203.000 157.930 203.035 160.000 202.000 C 165.204 202.000 172.595 203.203 177.000 201.000 L 209.000 201.000 C 212.232 197.122 214.188 192.874 215.000 188.000 C 217.620 184.070 219.220 178.680 220.000 174.000 C 221.729 171.407 223.000 169.353 223.000 166.000 C 225.100 162.850 226.372 159.767 227.000 156.000 C 229.167 152.749 230.354 148.875 231.000 145.000 C 232.237 143.145 232.627 142.236 233.000 140.000 C 235.396 136.406 236.653 132.041 238.000 128.000 C 240.808 126.596 241.456 126.735 242.000 130.000 L 241.000 126.000 L 240.000 126.000 C 237.752 127.349 237.471 128.175 237.000 131.000 C 234.681 134.478 233.000 137.501 233.000 142.000 C 231.275 144.070 231.000 144.293 231.000 147.000 C 228.983 150.025 227.000 153.110 227.000 157.000 C 225.287 159.569 224.512 161.930 224.000 165.000 C 221.409 168.886 219.772 173.367 219.000 178.000 C 217.763 179.855 217.373 180.764 217.000 183.000 C 215.584 185.124 215.000 186.259 215.000 189.000 C 213.440 191.339 212.470 193.181 212.000 196.000 L 207.000 201.000 L 184.000 201.000 L 176.000 201.000 C 174.133 201.934 173.288 202.000 171.000 202.000 C 166.769 202.000 161.554 201.223 158.000 203.000 L 136.000 203.000 C 133.930 204.035 132.528 204.000 130.000 204.000 Z"/>
  <path fill="#96B3E0" fill-rule="evenodd" d="M 233.000 381.000 L 238.000 381.000 C 239.661 378.508 239.000 380.193 239.000 378.000 C 240.416 375.876 241.000 374.741 241.000 372.000 L 239.000 370.000 L 235.000 370.000 L 232.000 373.000 C 232.000 375.056 231.842 375.317 231.000 377.000 L 233.000 381.000 Z M 199.000 375.000 C 197.869 376.886 197.429 376.856 197.000 379.000 L 197.000 380.000 C 199.070 381.035 200.472 381.000 203.000 381.000 C 204.661 378.508 204.000 380.193 204.000 378.000 L 206.000 375.000 C 206.000 370.501 204.123 370.000 200.000 370.000 C 198.441 371.871 197.716 372.852 197.000 375.000 L 199.000 375.000 Z M 289.000 371.000 L 289.000 370.000 C 291.778 367.685 291.852 367.951 295.000 369.000 L 295.000 368.000 L 294.000 367.000 L 290.000 367.000 C 286.962 370.645 286.000 373.092 286.000 378.000 L 288.000 381.000 L 292.000 381.000 C 294.605 378.395 295.000 377.598 295.000 374.000 L 293.000 372.000 C 290.944 372.000 290.683 371.842 289.000 371.000 Z M 266.000 367.000 L 263.000 370.000 C 262.489 373.069 262.000 375.558 262.000 379.000 L 264.000 381.000 L 267.000 381.000 L 271.000 377.000 L 272.000 370.000 L 270.000 367.000 L 266.000 367.000 Z M 221.000 381.000 L 227.000 381.000 C 227.934 379.133 228.000 378.288 228.000 376.000 C 228.934 374.133 229.000 373.288 229.000 371.000 C 229.842 369.317 230.000 369.056 230.000 367.000 C 229.260 367.740 228.765 368.469 228.000 370.000 L 223.000 370.000 C 220.535 372.465 219.982 374.054 219.000 377.000 L 221.000 381.000 Z M 192.000 371.000 L 191.000 370.000 L 188.000 370.000 L 185.000 373.000 L 185.000 380.000 C 187.278 381.139 189.230 381.000 192.000 381.000 C 192.934 379.133 193.000 378.288 193.000 376.000 C 194.400 373.200 195.000 370.406 195.000 367.000 L 194.000 367.000 C 193.632 369.210 193.521 369.174 192.000 371.000 Z"/>
</svg>
